<?xml version="1.0" encoding="utf-8"?>
<!-- Generator: Adobe Illustrator 15.0.0, SVG Export Plug-In . SVG Version: 6.00 Build 0)  -->
<!DOCTYPE svg PUBLIC "-//W3C//DTD SVG 1.1//EN" "http://www.w3.org/Graphics/SVG/1.1/DTD/svg11.dtd">
<svg version="1.1" id="Layer_1" xmlns="http://www.w3.org/2000/svg" xmlns:xlink="http://www.w3.org/1999/xlink" x="0px" y="0px"
	 width="48px" height="48px" viewBox="0 0 48 48" enable-background="new 0 0 48 48" xml:space="preserve">
<path fill="#FFFFFF" d="M21.8,4.2c-9.2,1-16.6,8.4-17.6,17.4C3,31.6,9.2,40.2,18,43v-4.6c0,0-0.8,0.199-1.8,0.199
	c-2.8,0-4-2.399-4.2-3.8c-0.2-0.8-0.6-1.399-1.2-2C10.2,32.6,10,32.6,10,32.4c0-0.4,0.6-0.4,0.8-0.4c1.2,0,2.2,1.4,2.6,2
	c1,1.6,2.2,2,2.8,2c0.8,0,1.4-0.2,1.8-0.4c0.2-1.399,0.8-2.8,2-3.6c-4.6-1-8-3.6-8-8c0-2.2,1-4.4,2.4-6c-0.2-0.4-0.4-1.4-0.4-2.8
	c0-0.8,0-2,0.6-3.2c0,0,2.8,0,5.6,2.6c1-0.4,2.4-0.6,3.8-0.6c1.4,0,2.8,0.2,4,0.6c2.6-2.6,5.6-2.6,5.6-2.6c0.4,1.2,0.4,2.4,0.4,3.2
	c0,1.6-0.2,2.4-0.4,2.8c1.4,1.6,2.4,3.6,2.4,6c0,4.4-3.4,7-8,8c1.2,1,2,2.8,2,4.6V43.2c8.2-2.601,14-10.2,14-19
	C44,12.2,33.8,2.8,21.8,4.2z"/>
</svg>
