<?xml version="1.0" encoding="utf-8"?>
<!-- Generator: Adobe Illustrator 15.0.0, SVG Export Plug-In . SVG Version: 6.00 Build 0)  -->
<!DOCTYPE svg PUBLIC "-//W3C//DTD SVG 1.1//EN" "http://www.w3.org/Graphics/SVG/1.1/DTD/svg11.dtd">
<svg version="1.1" id="Layer_1" xmlns="http://www.w3.org/2000/svg" xmlns:xlink="http://www.w3.org/1999/xlink" x="0px" y="0px"
	 width="52px" height="52px" viewBox="0 0 52 52" enable-background="new 0 0 52 52" xml:space="preserve">
<path fill="#FFFFFF" d="M42.25,0H9.75C4.367,0,0,4.367,0,9.75v32.5C0,47.633,4.367,52,9.75,52h32.5c5.383,0,9.75-4.367,9.75-9.75
	V9.75C52,4.367,47.633,0,42.25,0z M16.078,44.141H8L7.953,19.953h8.078L16.078,44.141z M11.836,16.789h-0.047
	c-2.641,0-4.344-1.82-4.344-4.086c0-2.32,1.758-4.078,4.445-4.078s4.336,1.758,4.391,4.078
	C16.281,14.969,14.57,16.789,11.836,16.789z M44.086,44.141h-8.148V31c0-3.18-0.844-5.344-3.688-5.344
	c-2.172,0-3.344,1.461-3.906,2.875c-0.211,0.508-0.266,1.203-0.266,1.914v13.695h-8.188l-0.047-24.188h8.188l0.047,3.414
	c1.047-1.617,2.789-3.906,6.961-3.906c5.172,0,9.039,3.375,9.039,10.633v14.047H44.086z"/>
</svg>
